<?xml version="1.0" encoding="UTF-8" standalone="no"?>
<svg
   xmlns:dc="http://purl.org/dc/elements/1.1/"
   xmlns:cc="http://creativecommons.org/ns#"
   xmlns:rdf="http://www.w3.org/1999/02/22-rdf-syntax-ns#"
   xmlns:svg="http://www.w3.org/2000/svg"
   xmlns="http://www.w3.org/2000/svg"
   xmlns:xlink="http://www.w3.org/1999/xlink"
   version="1.1"
   x="0px"
   y="0px"
   width="1100"
   height="120"
   viewBox="0 0 1100 120"
   enable-background="new 0 0 1068 100"
   xml:space="preserve"
   id="svg356"><metadata
   id="metadata362"><rdf:RDF><cc:Work
       rdf:about=""><dc:format>image/svg+xml</dc:format><dc:type
         rdf:resource="http://purl.org/dc/dcmitype/StillImage" /><dc:title></dc:title></cc:Work></rdf:RDF></metadata><defs
   id="defs360" />
<line
   fill="none"
   stroke="#332900"
   x1="3.1573503"
   y1="32.864872"
   x2="1083.2651"
   y2="32.864872"
   id="line245"
   style="stroke-width:1.10631" />

<path
   fill="none"
   stroke="#332900"
   d="m 655.2751,32.864871 c 7.86635,0 12.10208,3.630624 12.10208,12.10208 v 14.522496 c 0,7.866351 3.63063,12.102079 12.10208,12.102079 h 145.22496 c 7.86635,0 12.10208,-3.630624 12.10208,-12.102079 V 44.966951 c 0,-7.866352 3.63062,-12.10208 12.10208,-12.10208"
   id="path249"
   style="stroke-width:1.21021" />
<path
   fill="none"
   stroke="#332900"
   d="m 850.11859,32.864871 c 7.86635,0 12.10208,3.630624 12.10208,12.10208 v 14.522496 c 0,7.866351 3.63062,12.102079 12.10208,12.102079 h 173.66485 c 7.8663,0 12.1021,-3.630624 12.1021,-12.102079 V 44.966951 c 0,-7.866352 3.6306,-12.10208 12.102,-12.10208"
   id="path251"
   style="stroke-width:1.21021" />


<polygon
   fill="#332900"
   stroke="#332900"
   points="8.5,17 0.5,13 0.5,21 "
   id="polygon257"
   transform="matrix(1.210208,0,0,1.210208,3.7596382,12.291335)" />
<polygon
   fill="#332900"
   stroke="#332900"
   points="16.5,17 8.5,13 8.5,21 "
   id="polygon259"
   transform="matrix(1.210208,0,0,1.210208,3.7596382,12.291335)" />
<polygon
   fill="#332900"
   stroke="#332900"
   points="1050,21 1058,17 1050,13 "
   id="polygon261"
   transform="matrix(1.210208,0,0,1.210208,-197.13489,12.291335)" />

<a
   id="scheme"
   xlink:href="#scheme"
   transform="matrix(1.210208,0,0,1.210208,11.020886,12.291335)">
	<path
   fill="#332900"
   stroke="#332900"
   d="m 41.5,2.5 h 50 c 5.5,0 10,4.5 10,10 v 12 c 0,5.5 -4.5,10 -10,10 h -50 c -5.5,0 -10,-4.5 -10,-10 v -12 c 0,-5.5 4.5,-10 10,-10 z"
   id="path265" />
	<path
   fill="#ffdb4d"
   stroke="#332900"
   d="m 40,0.5 h 50 c 5.5,0 10,4.5 10,10 v 12 c 0,5.5 -4.5,10 -10,10 H 39.5 c -5.5,0 -10,-4.5 -10,-10 v -12 C 30,5 34,0.5 40,0.5 Z"
   id="path267" />
	<text
   transform="translate(64,20)"
   fill="#141000"
   text-anchor="middle"
   font-weight="bold"
   font-family="'DejaVu Sans'"
   font-size="12px"
   id="text269">scheme</text>
</a>
<a
   id="scheme-delimiter"
   xlink:href="#scheme-delimiter"
   transform="matrix(1.210208,0,0,1.210208,11.020886,12.291335)">
	<path
   fill="#332900"
   stroke="#332900"
   d="m 130,2.5 h 6 c 5.5,0 10,4.5 10,10 v 12 c 0,5.5 -4.5,10 -10,10 h -6 c -5.5,0 -10,-4.5 -10,-10 v -12 c 0,-5.5 4,-10 10,-10 z"
   id="path272" />
	<path
   fill="#ffdb4d"
   stroke="#332900"
   d="m 127.5,0.5 h 6 c 5.5,0 10,4.5 10,10 v 12 c 0,5.5 -4.5,10 -10,10 h -6 c -5.5,0 -10,-4.5 -10,-10 v -12 c 0,-5.5 4.5,-10 10,-10 z"
   id="path274" />
	<text
   transform="translate(130,20)"
   fill="#141000"
   text-anchor="middle"
   font-weight="bold"
   font-family="'DejaVu Sans'"
   font-size="12px"
   id="text276">:</text>
</a>
<a
   id="slashes"
   xlink:href="#slashes"
   transform="matrix(1.210208,0,0,1.210208,11.020886,-26.43532)">
	<path
   fill="#332900"
   stroke="#332900"
   d="m 194,35 h 17 c 5.5,0 10,4.5 10,10 v 12 c 0,5.5 -4.5,10 -10,10 h -17 c -5.5,0 -10,-4.5 -10,-10 V 45 c 0,-6 5,-10 10,-10 z"
   id="path279" />
	<path
   fill="#ffdb4d"
   stroke="#332900"
   d="m 192.35,32.75 h 17 c 5.5,0 10,4.5 10,10 v 12 c 0,5.5 -4.5,10 -10,10 h -17 c -5.5,0 -10,-4.5 -10,-10 v -12 C 182,37 187,32.75 192,32.75 Z"
   id="path281" />
	<text
   transform="translate(200,52)"
   fill="#141000"
   text-anchor="middle"
   font-weight="bold"
   font-family="'DejaVu Sans'"
   font-size="12px"
   id="text283">//</text>
</a>


<a
   id="host"
   xlink:href="#host"
   transform="matrix(1.210208,0,0,1.210208,-197.13489,-26.43532)">
	<rect
   x="416"
   y="35"
   fill="#332900"
   stroke="#332900"
   width="47"
   height="32"
   id="rect300" />
	<rect
   x="414"
   y="33"
   fill="#ffec9e"
   stroke="#332900"
   width="47"
   height="32"
   id="rect302" />
	<text
   transform="translate(437,53)"
   fill="#1a1400"
   text-anchor="middle"
   font-family="'DejaVu Sans'"
   font-size="12px"
   id="text304">host</text>
</a>
<a
   id="port-delimiter"
   xlink:href="#port-delimiter"
   transform="matrix(1.210208,0,0,1.210208,-197.13489,-67.582392)">
	<path
   fill="#332900"
   stroke="#332900"
   d="m 512,67.5 h 5 c 5.5,0 10,4.5 10,10 v 12 c 0,5.5 -4.5,10 -10,10 h -5 c -5.5,0 -10,-4.5 -10,-10 v -12 c 0,-5.5 5,-10 10,-10 z"
   id="path307" />
	<path
   fill="#ffdb4d"
   stroke="#332900"
   d="m 510,65.5 h 5 c 5.5,0 10,4.5 10,10 v 12 c 0,5.5 -4.5,10 -10,10 h -5 c -5.5,0 -10,-4.5 -10,-10 v -12 c 0,-5.5 5,-10 10,-10 z"
   id="path309" />
	<text
   transform="translate(512,85)"
   fill="#141000"
   text-anchor="middle"
   font-weight="bold"
   font-family="'DejaVu Sans'"
   font-size="12px"
   id="text311">:</text>
</a>
<a
   id="port"
   xlink:href="#port"
   transform="matrix(1.210208,0,0,1.210208,-197.13489,-67.582392)">
	<rect
   x="546"
   y="67.5"
   fill="#332900"
   stroke="#332900"
   width="46"
   height="32"
   id="rect314" />
	<rect
   x="544"
   y="65.5"
   fill="#ffec9e"
   stroke="#332900"
   width="46"
   height="32"
   id="rect316" />
	<text
   transform="translate(567,86)"
   fill="#1a1400"
   text-anchor="middle"
   font-family="'DejaVu Sans'"
   font-size="12px"
   id="text318">port</text>
</a>
<a
   id="path"
   xlink:href="#path"
   transform="matrix(1.210208,0,0,1.210208,-197.13489,12.291335)">
	<rect
   x="650"
   y="2.5"
   fill="#332900"
   stroke="#332900"
   width="47"
   height="32"
   id="rect321" />
	<rect
   x="648"
   y="0.5"
   fill="#ffec9e"
   stroke="#332900"
   width="47"
   height="32"
   id="rect323" />
	<text
   transform="translate(672,21)"
   fill="#1a1400"
   text-anchor="middle"
   font-family="'DejaVu Sans'"
   font-size="12px"
   id="text325">path</text>
</a>
<a
   id="question-mark"
   xlink:href="#question-mark"
   transform="matrix(1.210208,0,0,1.210208,-197.13489,12.291335)">
	<path
   fill="#332900"
   stroke="#332900"
   d="m 746.5,34.75 h 7 c 5.5,0 10,4.5 10,10 v 12 c 0,5.5 -4.5,10 -10,10 h -7 c -5.5,0 -10,-4.5 -10,-10 v -12 c 0,-5.75 4.5,-10 10,-10 z"
   id="path328" />
	<path
   fill="#ffdb4d"
   stroke="#332900"
   d="m 744.5,32.75 h 7 c 5.5,0 10,4.5 10,10 v 12 c 0,5.5 -4.5,10 -10,10 h -7 c -5.5,0 -10,-4.5 -10,-10 v -12 c 0,-5.75 4.5,-10 10.5,-10 z"
   id="path330" />
	<text
   transform="translate(748,53)"
   fill="#141000"
   text-anchor="middle"
   font-weight="bold"
   font-family="'DejaVu Sans'"
   font-size="12px"
   id="text332">?</text>
</a>
<a
   id="query"
   xlink:href="#query"
   transform="matrix(1.210208,0,0,1.210208,-197.13489,12.291335)">
	<rect
   x="783"
   y="35"
   fill="#332900"
   stroke="#332900"
   width="53"
   height="32"
   id="rect335" />
	<rect
   x="781"
   y="33"
   fill="#ffec9e"
   stroke="#332900"
   width="53"
   height="32"
   id="rect337" />
	<text
   transform="translate(807,53)"
   fill="#1a1400"
   text-anchor="middle"
   font-family="'DejaVu Sans'"
   font-size="12px"
   id="text339">query</text>
</a>
<a
   id="hash"
   xlink:href="#hash"
   transform="matrix(1.210208,0,0,1.210208,-197.13489,12.291335)">
	<path
   fill="#332900"
   stroke="#332900"
   d="m 906.5,35 h 10 c 5.5,0 10,4.5 10,10 v 12 c 0,5.5 -4.5,10 -10,10 h -10 c -5.5,0 -10,-4.5 -10,-10 V 44.75 C 896.5,39 901,35 906.5,35 Z"
   id="path342" />
	<path
   fill="#ffdb4d"
   stroke="#332900"
   d="m 904.5,33 h 10 c 5.5,0 10,4.5 10,10 v 12 c 0,5.5 -4.5,10 -10,10 h -10 c -5.5,0 -10,-4.5 -10,-10 V 42.75 C 894.5,37 900,33 904.5,33 Z"
   id="path344" />
	<text
   transform="translate(909,53)"
   fill="#141000"
   text-anchor="middle"
   font-weight="bold"
   font-family="'DejaVu Sans'"
   font-size="12px"
   id="text346">#</text>
</a>
<a
   id="fragment"
   xlink:href="#fragment"
   transform="matrix(1.210208,0,0,1.210208,-197.13489,12.291335)">
	<rect
   x="946"
   y="35"
   fill="#332900"
   stroke="#332900"
   width="76"
   height="32"
   id="rect349" />
	<rect
   x="944"
   y="33"
   fill="#ffec9e"
   stroke="#332900"
   width="76"
   height="32"
   id="rect351" />
	<text
   transform="translate(982,53)"
   fill="#1a1400"
   text-anchor="middle"
   font-family="'DejaVu Sans'"
   font-size="12px"
   id="text353">fragment</text>
</a>
</svg>
