<svg id="Layer_1" xmlns="http://www.w3.org/2000/svg" viewBox="0 0 800 326"><style>.st0{fill:#DCE1E5;stroke:#404040;stroke-width:3.4172;stroke-miterlimit:10;} .st1{fill:#DCE1E5;} .st2{fill:#404040;} .st3{fill:#404040;stroke:#404040;stroke-width:2.4556;stroke-linecap:round;stroke-miterlimit:10;} .st4{fill:#FFFFFF;stroke:#404040;stroke-width:4;stroke-linecap:round;stroke-linejoin:round;stroke-miterlimit:10;} .st5{fill:#FFFFFF;stroke:#404040;stroke-width:4;stroke-miterlimit:10;} .st6{fill:#B3E3FF;stroke:#404040;stroke-width:4;stroke-miterlimit:10;}</style><path class="st0" d="M392.2,225.4c-0.8-16.2-14.5-28.6-30.7-27.8c-15.7,0.8-27.9,13.7-27.9,29.3h0V242h11.1v-16.3	c0-9.6,7.6-17.7,17.3-18.1c10-0.5,18.5,7.2,19,17.2c0,0.3,0,0.6,0,0.9V242h11.1v-15.3C392.2,226.3,392.2,225.8,392.2,225.4z"/><path class="st0" d="M329.8,194.6c0.9,18.4,16.5,32.6,34.9,31.7c17.8-0.9,31.7-15.6,31.7-33.3h0v-17.3h-12.7v18.5	c0,10.9-8.6,20.1-19.6,20.6c-11.4,0.6-21.1-8.2-21.6-19.6c0-0.3,0-0.7,0-1v-18.5h-12.7V193C329.8,193.6,329.8,194.1,329.8,194.6z"/><path class="st1" d="M382.8,224.8c0,0.3,0,0.6,0,1v14.6h7.7v-13.5c0-0.4,0-0.9,0-1.3v0c-0.4-7.4-3.6-14.1-9-19.1 c-5.1-4.6-11.6-7.1-18.4-7.1v6.7C373.5,206,382.3,214.2,382.8,224.8z"/><path class="st2" d="M393.9,225.3c-0.4-8.3-4-15.9-10.1-21.5c-5.7-5.2-13-8-20.7-8v1.7c15.5,0.1,28.3,12.2,29.1,27.9 c0,0.5,0,1,0,1.4V242h-11.1v-16.3c0-0.3,0-0.6,0-0.9c-0.5-9.7-8.4-17.2-18-17.2v1.7c4,0,7.9,1.5,10.9,4.2c3.3,3,5.2,7,5.4,11.4 c0,0.3,0,0.5,0,0.8v18h14.6v-17C393.9,226.3,393.9,225.8,393.9,225.3z"/><path class="st2" d="M381.5,206.4c5.5,5,8.7,11.7,9,19.1v0c0,0.5,0,0.9,0,1.3v13.5h-7.7v-14.6c0-0.3,0-0.6,0-1 c-0.5-10.6-9.2-18.8-19.7-18.9v1.7c9.6,0.1,17.5,7.6,18,17.2c0,0.3,0,0.6,0,0.9V242h11.1v-15.3c0-0.5,0-1,0-1.4 c-0.8-15.6-13.6-27.8-29.1-27.9v1.7C369.9,199.2,376.4,201.7,381.5,206.4z"/><path class="st0" d="M399.1,300.3h-73.1c-3.2,0-5.8-2.6-5.8-5.8v-52.7c0-3.2,2.6-5.8,5.8-5.8h73.1c3.2,0,5.8,2.6,5.8,5.8v52.7	C404.8,297.8,402.2,300.3,399.1,300.3z"/><path class="st3" d="M370.8,259.6c0-4.5-3.7-8.1-8.2-7.9c-4.1,0.2-7.4,3.6-7.6,7.7c-0.1,3.2,1.7,6,4.4,7.3v9.9h7v-9.9	C369,265.4,370.8,262.7,370.8,259.6z"/><path class="st0" d="M320.2 286.2L404.8 286.2"/><path class="st4" d="M409.5,56.8h183.3V167H409.5 M316.7,167H207.2V56.8h109.5"/><path class="st0" d="M406.1,186.5h-86c-1.9,0-3.4-1.5-3.4-3.4V49.4c0-1.9,1.5-3.4,3.4-3.4h86c1.9,0,3.4,1.5,3.4,3.4v133.7	C409.5,185,408,186.5,406.1,186.5z"/><path class="st5" d="M273.3,111.9h272.4"/><circle class="st6" cx="362.3" cy="111.9" r="19"/><circle class="st6" cx="442.2" cy="111.9" r="19"/><circle class="st6" cx="526.7" cy="111.9" r="19"/><circle class="st6" cx="273.3" cy="111.9" r="19"/><path class="st2" d="M351.5,115.9l-2.5-7h1.3l1.5,4.4c0.3,0.8,0.3,0.9,0.5,1.7c0.3-0.9,0.3-0.9,0.6-1.9l1.5-4.2h1.2l-2.7,7H351.5z M365.2,115.9h-5.8v-0.2c0-0.9,0.2-1.6,0.7-2.2c0.4-0.5,1-1,2.2-1.7c1.3-0.7,1.7-1.3,1.7-2.1c0-0.9-0.7-1.6-1.7-1.6	c-0.6,0-1.2,0.3-1.4,0.8c-0.2,0.3-0.2,0.6-0.3,1.2h-1.1c0-1,0.2-1.5,0.5-2c0.5-0.8,1.3-1.2,2.4-1.2c1.7,0,2.8,1.1,2.8,2.6	c0,0.6-0.2,1.2-0.5,1.6c-0.4,0.5-0.8,0.9-2,1.5c-1.5,0.9-1.9,1.3-2.1,2.1h4.6L365.2,115.9L365.2,115.9z M367.9,115.9h-1.3v-1.4h1.3	V115.9z M368.5,109.8V109c1.8-0.1,2.2-0.4,2.4-1.8h0.8v8.8h-1.1v-6.1L368.5,109.8L368.5,109.8z"/></svg>